<?xml version="1.0" encoding="UTF-8"?>
<svg version="1.1" xmlns="http://www.w3.org/2000/svg" width="1192" height="1192">
<path d="M0 0 C7.5883471 0.01510114 15.17662672 0.00635423 22.76497677 -0.00274747 C37.62591771 -0.01982901 52.48678424 -0.01446978 67.34772353 0.00060972 C80.35049449 0.01371708 93.35323976 0.0188468 106.35601714 0.01629156 C107.65517907 0.01605093 107.65517907 0.01605093 108.98058669 0.01580545 C112.49729354 0.01514175 116.01400037 0.01443932 119.5307072 0.01368011 C152.44226355 0.00667407 185.35377475 0.02208786 218.26531962 0.04830357 C247.4463619 0.07142465 276.62735461 0.07680107 305.80840399 0.06657117 C313.28602092 0.06396873 320.76363784 0.0613836 328.24125483 0.05897325 C329.16210697 0.0586758 330.08295911 0.05837835 331.03171586 0.05807189 C355.48697671 0.05044291 379.94223356 0.05688156 404.39749261 0.06766927 C407.03137282 0.06881696 409.66525304 0.06996014 412.29913325 0.07109609 C414.04603545 0.07185133 415.79293764 0.07261698 417.53983983 0.0733931 C430.53158018 0.07903037 443.52330767 0.07773587 456.51504805 0.07316488 C471.29652324 0.06803778 486.07795056 0.07399541 500.85941386 0.09405917 C509.11251083 0.1049761 517.36551356 0.10790381 525.61861324 0.09877064 C531.80716416 0.09287359 537.9955988 0.10290678 544.18413006 0.11877029 C546.66749591 0.12277513 549.15087624 0.12188276 551.63423646 0.11525143 C629.22671782 -0.07401514 701.72858278 29.32135349 758.80474188 81.51261609 C759.78700751 82.39046766 760.76927313 83.26831922 761.78130438 84.17277234 C768.21297105 89.94064363 774.17150099 95.95349651 779.80474188 102.51261609 C781.04610907 103.92220594 781.04610907 103.92220594 782.31255438 105.36027234 C795.56924271 120.54890139 806.95829385 136.93292928 816.80474188 154.51261609 C817.30747626 155.40964246 817.81021063 156.30666883 818.32817938 157.23087781 C845.2260377 205.77843999 855.93184906 257.90067335 855.96968939 312.94035047 C855.97497756 315.42400954 855.98069098 317.90766773 855.98679104 320.39132493 C855.99903117 325.77514434 856.00826101 331.15895617 856.01478102 336.54278463 C856.02448712 344.5493939 856.03980571 352.55598575 856.0561931 360.56258378 C856.08528262 374.86776383 856.10879324 389.17294895 856.12989886 403.47814277 C856.14838664 416.00209867 856.16867258 428.52605002 856.19073966 441.05000013 C856.19220239 441.88181214 856.19366512 442.71362415 856.19517218 443.57064258 C856.20111131 446.94760614 856.2070567 450.32456969 856.21301278 453.70153322 C856.26882493 485.36782663 856.31889709 517.03412686 856.36642791 548.70043365 C856.40863862 576.79783109 856.45606606 604.89521521 856.50786688 632.99259656 C856.56610381 664.59011904 856.62095213 696.1876445 856.67046776 727.78518194 C856.67576319 731.15835662 856.68106737 734.53153128 856.68637564 737.90470594 C856.68767972 738.73521137 856.68898379 739.5657168 856.69032738 740.42138905 C856.71002601 752.92803938 856.73229536 765.43468341 856.75584128 777.94132703 C856.78262992 792.17726479 856.80569205 806.41320326 856.82392625 820.64915466 C856.83421741 828.60304374 856.84730539 836.5569161 856.86456455 844.51079318 C856.87716926 850.47018657 856.88428176 856.42957382 856.88936026 862.3889789 C856.89222551 864.78463195 856.8967997 867.18028377 856.90334902 869.57592958 C857.00270085 907.03899677 857.00270085 907.03899677 854.55474188 925.38761609 C854.4254328 926.37334608 854.29612372 927.35907606 854.16289618 928.37467664 C850.24844712 956.76624999 842.53626984 984.36030418 830.80474188 1010.51261609 C830.38321845 1011.45588758 829.96169501 1012.39915906 829.52739813 1013.37101453 C818.58423869 1037.60345589 804.82623128 1060.06018069 787.80474188 1080.51261609 C787.11509345 1081.38660047 786.42544501 1082.26058484 785.71489813 1083.16105359 C779.23255556 1091.16679921 772.06481304 1098.46888714 764.80474188 1105.76261609 C764.29644843 1106.27608594 763.78815497 1106.78955579 763.26445868 1107.31858533 C756.45148853 1114.18612725 749.42134513 1120.52616298 741.80474188 1126.51261609 C741.19823798 1126.99875379 740.59173407 1127.48489149 739.96685126 1127.98576063 C711.59848011 1150.67153668 679.17376004 1167.06594124 644.80474188 1178.51261609 C643.96443427 1178.79975477 643.12412665 1179.08689344 642.25835517 1179.38273328 C631.41850073 1183.05883855 620.40226504 1185.56253119 609.17974188 1187.76261609 C607.92983466 1188.00906873 606.67992743 1188.25552137 605.39214423 1188.50944227 C586.83075655 1192.00404688 568.75627391 1192.80464656 549.89788153 1192.77331251 C547.3022512 1192.77633762 544.70662177 1192.7802289 542.11099389 1192.78490507 C536.49480156 1192.79361274 530.87864572 1192.79499871 525.26244834 1192.7914018 C516.91016759 1192.78606686 508.5579218 1192.79221807 500.20564485 1192.80048473 C484.41528099 1192.81568491 468.62493322 1192.81743384 452.83456358 1192.81496171 C440.63460335 1192.81312525 428.43464836 1192.81489605 416.23468878 1192.81918615 C414.47859589 1192.81978856 412.72250299 1192.82038976 410.9664101 1192.82098975 C408.31974258 1192.82189706 405.67307506 1192.82280573 403.02640754 1192.8237221 C378.433636 1192.83214592 353.84086642 1192.83649136 329.24809363 1192.83231538 C328.32193563 1192.83215901 327.39577764 1192.83200263 326.44155425 1192.83184152 C321.7480101 1192.8310358 317.05446596 1192.83019003 312.36092182 1192.82932821 C311.42886308 1192.82915713 310.49680434 1192.82898604 309.5365014 1192.82880977 C307.6516533 1192.82846311 305.76680521 1192.82811458 303.88195712 1192.82776418 C274.5687719 1192.82240973 245.25561679 1192.83033187 215.9424372 1192.84879774 C182.96486704 1192.86954794 149.98731552 1192.88023457 117.00973847 1192.87622225 C113.48826602 1192.87582694 109.96679356 1192.87546539 106.44532111 1192.87512487 C105.57832631 1192.87503414 104.71133151 1192.87494341 103.81806414 1192.87484992 C90.77102823 1192.87368747 77.72401123 1192.88030547 64.67698004 1192.89093679 C49.82383032 1192.9030279 34.97072206 1192.90450305 20.11757168 1192.89214662 C11.82232205 1192.88555324 3.52717181 1192.88706694 -4.76806971 1192.90073514 C-10.98853282 1192.91003805 -17.20888847 1192.90337695 -23.42934385 1192.89088734 C-25.92588709 1192.88825681 -28.42244214 1192.89055442 -30.91897372 1192.8986232 C-94.38765381 1193.08931696 -156.70536824 1173.893731 -208.19525812 1136.51261609 C-208.86927667 1136.02792859 -209.54329523 1135.54324109 -210.23773858 1135.04386609 C-218.46262377 1129.10850145 -226.21903922 1122.92330512 -233.59760187 1115.96183484 C-235.77224441 1113.91145759 -237.98197348 1111.94818242 -240.25775812 1110.01261609 C-248.16089486 1103.14676605 -255.50268565 1095.55682574 -262.19525812 1087.51261609 C-262.65126398 1086.97040418 -263.10726983 1086.42819227 -263.57709405 1085.86954969 C-271.73581732 1076.14342502 -279.25286179 1066.14156654 -286.19525812 1055.51261609 C-286.86814874 1054.48265516 -287.54103937 1053.45269422 -288.23432062 1052.39152234 C-310.76078899 1016.74778947 -325.68389962 977.37654821 -332.38275812 935.76261609 C-332.61551446 934.3380409 -332.61551446 934.3380409 -332.85297296 932.88468641 C-335.91140175 912.51961968 -336.49147952 892.01088539 -336.45595453 871.45405286 C-336.45898349 868.92734022 -336.46287666 866.40062849 -336.46754709 863.87391835 C-336.4756249 858.4299626 -336.47765509 852.98605944 -336.47404382 847.54209989 C-336.46868769 839.44599889 -336.47488079 831.34993369 -336.48312675 823.25383657 C-336.49829098 807.94697808 -336.50007975 792.64013625 -336.49760373 777.33327181 C-336.49576463 765.50772483 -336.49754355 753.68218325 -336.50182817 741.85663694 C-336.50243059 740.1522548 -336.50303179 738.44787267 -336.50363177 736.74349054 C-336.50453911 734.1745667 -336.50544778 731.60564286 -336.50636412 729.03671903 C-336.51478196 705.18234111 -336.51913736 681.32796521 -336.5149574 657.47358602 C-336.51480103 656.57610684 -336.51464465 655.67862766 -336.51448354 654.75395213 C-336.51367786 650.20608963 -336.51283209 645.65822713 -336.51197023 641.11036463 C-336.51179915 640.20728638 -336.51162806 639.30420812 -336.51145179 638.37376387 C-336.51110513 636.54752598 -336.5107566 634.7212881 -336.5104062 632.89505022 C-336.50504931 604.48028776 -336.51298331 576.06555635 -336.53143976 547.65079969 C-336.55219378 515.66200097 -336.56287616 483.67322146 -336.55886427 451.68441564 C-336.55846898 448.26835269 -336.55810742 444.85228974 -336.55776689 441.43622678 C-336.55767616 440.59522162 -336.55758543 439.75421645 -336.55749195 438.88772629 C-336.55633016 426.23950968 -336.56294209 413.5913126 -336.57357881 400.94310087 C-336.58567415 386.54652358 -336.58713996 372.14998909 -336.57478864 357.75341113 C-336.56820014 349.71606182 -336.56969751 341.67881509 -336.58337716 333.64147417 C-336.59269152 327.61150762 -336.58600784 321.58166304 -336.57352936 315.55169789 C-336.57090227 313.13408043 -336.57318531 310.71645075 -336.58126522 308.29884536 C-336.64839372 286.68986127 -335.12249699 265.10719218 -330.50775812 243.95011609 C-330.2542962 242.76232557 -330.00083429 241.57453504 -329.73969171 240.35075086 C-319.09979783 192.22230469 -297.13839827 147.0703355 -265.19525812 109.51261609 C-264.28584565 108.41802762 -263.37702526 107.32294705 -262.46869562 106.22745984 C-252.94413671 94.8295306 -242.6671472 83.97741653 -231.19525812 74.51261609 C-230.67334894 74.07159559 -230.15143976 73.63057508 -229.61371515 73.17619031 C-162.79701303 16.75117175 -85.39856388 -0.17938226 0 0 Z " fill="#FEFEFE" transform="translate(336.1952581158839,-0.5126160946674645)"/>
<path d="M0 0 C3.24346608 1.30789739 6.50686329 2.56155505 9.77294922 3.81152344 C22.66718928 8.75228721 35.51416939 13.78210991 48.27709961 19.0546875 C55.3132892 21.9539351 62.40867558 24.6547494 69.546875 27.29052734 C82.4098443 32.04961712 95.158413 37.01949506 107.77880859 42.39257812 C113.71167841 44.90359386 119.69277828 47.22958454 125.73240662 49.4712677 C136.88698693 53.62714298 147.94909043 58.02648009 159.02685547 62.38183594 C160.27418444 62.87190203 161.5215193 63.36195316 162.76885986 63.85198975 C180.22060251 70.70997711 197.63609866 77.65238794 215.00439453 84.71923828 C224.4950664 88.58022612 233.9954521 92.41510409 243.51123047 96.21386719 C244.61403351 96.65418274 245.71683655 97.09449829 246.85305786 97.54815674 C252.20207647 99.6830727 257.55211935 101.81538481 262.90332031 103.94482422 C273.19570632 108.04549486 283.47012488 112.18953582 293.71435547 116.40917969 C294.70928009 116.81462509 295.70420471 117.2200705 296.72927856 117.63780212 C304.06160153 120.67699127 310.37872268 124.1581987 316.65185547 129.06933594 C317.53744141 129.72675781 318.42302734 130.38417969 319.33544922 131.06152344 C337.91568803 145.2520773 350.28124563 167.01372464 353.65185547 190.06933594 C353.86411079 194.29696248 353.83696288 198.52435448 353.83935547 202.75683594 C353.85160156 203.87767578 353.86384766 204.99851562 353.87646484 206.15332031 C353.91075945 225.8498549 346.9526129 241.11820824 337.65185547 258.06933594 C327.85501345 255.40894906 318.575655 251.56566281 309.17529297 247.77636719 C307.3961172 247.06282881 305.61678725 246.34967477 303.83731079 245.6368866 C299.18341483 243.77153363 294.53161466 241.90100981 289.88024902 240.02935791 C285.12179223 238.11569489 280.36134781 236.20698968 275.60107422 234.29785156 C266.28272911 230.55983022 256.96659314 226.81633669 247.65185547 223.06933594 C249.57002882 218.67289192 252.65464105 216.63694492 256.52685547 214.00683594 C257.77445 213.14123684 259.02185088 212.27535855 260.26904297 211.40917969 C260.8565332 211.00683105 261.44402344 210.60448242 262.04931641 210.18994141 C263.38671078 209.25474333 264.6850455 208.26400432 265.97216797 207.26074219 C267.65185547 206.06933594 267.65185547 206.06933594 269.65185547 206.06933594 C268.00745404 204.37510416 266.34228379 202.71687928 264.65185547 201.06933594 C264.19907227 200.60736816 263.74628906 200.14540039 263.27978516 199.66943359 C257.93202847 194.61227847 251.73689701 192.24286486 244.96435547 189.56933594 C243.67711374 189.05008601 242.39025886 188.52987623 241.10375977 188.00878906 C229.93048998 183.50300576 218.68822834 179.16670453 207.45043945 174.82495117 C194.60363262 169.85699636 181.81077485 164.75919503 169.02685547 159.63183594 C150.54141153 152.21987581 132.04203365 144.84422691 113.52685547 137.50683594 C112.31227661 137.02550201 111.09769775 136.54416809 109.84631348 136.04824829 C102.61287322 133.18199909 95.37891653 130.31705538 88.14477539 127.45257568 C83.6135562 125.65815651 79.08265703 123.86293016 74.55175781 122.06770325 C46.7316286 111.03577601 46.7316286 111.03577601 18.87817383 100.08837891 C13.03320909 97.80131624 7.19859406 95.49111645 1.37341309 93.1541748 C-2.10802807 91.75830705 -5.59176867 90.36822672 -9.07562256 88.97839355 C-10.78056425 88.29638467 -12.4844103 87.61162953 -14.18707275 86.9239502 C-16.56744544 85.96278541 -18.95147551 85.01126203 -21.33642578 84.06152344 C-22.39551399 83.62956161 -22.39551399 83.62956161 -23.47599792 83.18887329 C-27.7919636 81.48326548 -31.72839844 80.5514291 -36.34814453 80.06933594 C-49.15729916 95.50600947 -56.3095606 114.84136086 -60.48876953 134.22949219 C-61.34814453 138.06933594 -61.34814453 138.06933594 -62.35986328 141.35449219 C-63.68573945 146.3383192 -64.28642072 151.33164564 -64.91064453 156.44433594 C-65.03632813 157.43433594 -65.16201172 158.42433594 -65.29150391 159.44433594 C-65.65359854 162.31834359 -66.00813601 165.19262683 -66.34814453 168.06933594 C-66.43327301 168.72057938 -66.51840149 169.37182281 -66.60610962 170.0428009 C-67.34674241 176.02946496 -67.52380035 181.94309093 -67.55126953 187.97167969 C-67.55828384 188.99883591 -67.56529816 190.02599213 -67.57252502 191.08427429 C-67.58997965 194.39183965 -67.59637966 197.69922617 -67.59814453 201.00683594 C-67.59881927 202.13426208 -67.59949402 203.26168823 -67.60018921 204.42327881 C-67.58455496 220.83046843 -67.26807659 236.87980933 -64.34814453 253.06933594 C-64.08275879 254.58454834 -64.08275879 254.58454834 -63.81201172 256.13037109 C-60.55633459 274.24464374 -55.60540197 291.22447555 -48.34814453 308.13183594 C-47.9450708 309.07164307 -47.54199707 310.0114502 -47.12670898 310.97973633 C-44.32414858 317.31686497 -41.0425054 323.20961621 -37.34814453 329.06933594 C-32.26643647 328.3301194 -27.68481228 326.38287694 -22.93408203 324.51855469 C-21.52034554 323.96930077 -21.52034554 323.96930077 -20.07804871 323.40895081 C-16.95817394 322.19557729 -13.84065412 320.97627207 -10.72314453 319.75683594 C-8.54088784 318.90660233 -6.35851289 318.05667222 -4.17602539 317.20703125 C2.769237 314.50119297 9.71096218 311.78635914 16.65185547 309.06933594 C17.81170959 308.61536438 18.97156372 308.16139282 20.16656494 307.69366455 C31.27229607 303.3460909 42.37662458 298.99494903 53.47613525 294.6315155 C55.43872445 293.86106026 57.40204374 293.09246178 59.3661499 292.32588196 C63.89624944 290.55652081 68.4127616 288.76389294 72.90625 286.90332031 C73.72698502 286.56894958 74.54772003 286.23457886 75.39332581 285.89007568 C76.90880194 285.27173512 78.41981088 284.64226803 79.9249115 283.99908447 C85.0702279 281.91918051 88.35438277 281.68969061 93.47447205 283.83190918 C95.5927104 284.81580277 97.66648037 285.86492453 99.74169922 286.93652344 C100.51449722 287.32711945 101.28729523 287.71771545 102.08351135 288.12014771 C103.73418723 288.9553822 105.38306375 289.79418073 107.03027344 290.63623047 C111.33240829 292.83531829 115.64735542 295.00903226 119.96044922 297.18652344 C120.80767548 297.61519714 121.65490173 298.04387085 122.52780151 298.48553467 C129.02808836 301.77009572 135.56624726 304.95879471 142.15185547 308.06933594 C150.46122893 311.99927145 158.69076388 316.06938672 166.90039062 320.20336914 C174.41638958 323.97789032 182.00054035 327.57738059 189.65185547 331.06933594 C187.37554417 333.62316131 185.24982943 334.88621983 182.11741638 336.23065186 C181.2054226 336.62533283 180.29342882 337.02001381 179.35379887 337.42665482 C178.36861995 337.84337826 177.38344103 338.2601017 176.3684082 338.68945312 C174.82740904 339.34966021 174.82740904 339.34966021 173.25527859 340.0232048 C162.62797901 344.55258387 151.91833866 348.8718697 141.18701172 353.14746094 C139.12818944 353.97051063 137.06947088 354.79381981 135.010849 355.61737061 C130.74384359 357.3235547 126.47593894 359.02746094 122.20727539 360.72949219 C116.78130324 362.89305412 111.35717996 365.06120607 105.93366337 367.23091507 C101.70019987 368.92419094 97.46601597 370.61565903 93.23159599 372.30654144 C91.23228437 373.10500907 89.23312995 373.90387046 87.23414803 374.70316315 C76.8535463 378.85213429 66.46096199 382.9443826 55.97459412 386.8192749 C50.80753771 388.76319423 45.73527295 390.91841883 40.65185547 393.06933594 C26.17404589 399.14342335 11.56263537 404.76060193 -3.24658203 409.97558594 C-5.09093979 410.62598918 -6.93129145 411.28825193 -8.76220703 411.97558594 C-27.98178897 418.96452483 -52.49468817 419.01074478 -71.34814453 411.06933594 C-71.97640137 410.80701172 -72.6046582 410.5446875 -73.25195312 410.27441406 C-81.53789632 406.70218526 -88.65859792 402.12548694 -95.34814453 396.06933594 C-96.14478516 395.37710937 -96.94142578 394.68488281 -97.76220703 393.97167969 C-109.51251386 383.09798305 -117.69720772 369.01439048 -123.4921875 354.21411133 C-124.5284816 351.61746452 -125.63158425 349.05172611 -126.72705078 346.47949219 C-129.55277 339.7087788 -131.97840335 332.82326986 -134.34814453 325.88183594 C-134.56602631 325.24427368 -134.78390808 324.60671143 -135.00839233 323.9498291 C-144.30076357 296.7171623 -149.62917998 269.62437822 -153.34814453 241.06933594 C-153.61292603 239.2858374 -153.61292603 239.2858374 -153.88305664 237.46630859 C-154.57140101 231.89045546 -154.54878818 226.30163508 -154.58642578 220.69042969 C-154.59617432 219.49764404 -154.60592285 218.3048584 -154.6159668 217.07592773 C-154.93249609 168.31775497 -154.93249609 168.31775497 -150.34814453 144.06933594 C-150.15027344 142.95494141 -149.95240234 141.84054687 -149.74853516 140.69238281 C-147.3594883 127.27815535 -144.4233247 114.07249654 -140.34814453 101.06933594 C-139.97947266 99.88839355 -139.61080078 98.70745117 -139.23095703 97.49072266 C-127.1788481 59.14680125 -114.09149993 19.95421875 -76.57421875 0.0234375 C-52.50169199 -12.23354326 -24.43056335 -10.01817417 0 0 Z " fill="#DB3C7E" transform="translate(361.34814453125,391.9306640625)"/>
<path d="M0 0 C32.8140953 27.2881105 43.95597893 79.55036429 52.375 119.29223633 C52.67449703 120.67256332 52.98768635 122.04997073 53.3125 123.42456055 C54.70540494 129.36880877 55.56419321 135.31474264 56.3125 141.37109375 C56.48845703 142.75458008 56.48845703 142.75458008 56.66796875 144.16601562 C56.9169676 146.12989366 57.16059385 148.0944582 57.3996582 150.05957031 C57.68886451 152.33559483 58.00479037 154.6083095 58.34057617 156.87792969 C59.92701526 168.08016115 60.17059419 179.1296485 60.125 190.43359375 C60.12284485 191.39769165 60.1206897 192.36178955 60.11846924 193.35510254 C59.90560194 252.99485908 47.78347411 336.33761964 3.703125 380.41796875 C-2.29787152 386.06854212 -9.05932203 390.21970293 -16.1875 394.30859375 C-16.87457031 394.72109375 -17.56164062 395.13359375 -18.26953125 395.55859375 C-35.96753934 405.42937822 -63.58304121 406.74896746 -82.81542969 401.35961914 C-96.78854786 397.00440095 -110.31534134 391.0713688 -123.8638916 385.57122803 C-130.15668594 383.0176755 -136.45288005 380.47255016 -142.75 377.9296875 C-143.41157356 377.66251671 -144.07314713 377.39534592 -144.75476837 377.12007904 C-160.95760367 370.57904338 -177.19502188 364.12543135 -193.4375 357.68359375 C-194.50805571 357.25895466 -194.50805571 357.25895466 -195.6002388 356.825737 C-205.45901744 352.91534588 -215.31929986 349.00875621 -225.18015289 345.10359955 C-228.43903209 343.81292697 -231.69778914 342.52194611 -234.95654297 341.23095703 C-235.58011122 340.9839291 -236.20367947 340.73690117 -236.84614372 340.48238754 C-239.90789175 339.26946591 -242.96962375 338.05650379 -246.03134155 336.84350586 C-251.55537792 334.65504604 -257.07960631 332.46707607 -262.60449219 330.28076172 C-264.58401027 329.49713573 -266.56350297 328.71344559 -268.54296875 327.9296875 C-269.97329941 327.36350708 -269.97329941 327.36350708 -271.43252563 326.78588867 C-276.51265576 324.77275414 -281.58820831 322.74874515 -286.65869141 320.71142578 C-300.9576359 314.96581012 -300.9576359 314.96581012 -315.35804749 309.48179626 C-323.21337349 306.57028643 -331.01073034 303.50975007 -338.81298828 300.45947266 C-341.42034218 299.44030046 -344.0284796 298.42315422 -346.63671875 297.40625 C-358.5127477 292.77121564 -370.36240799 288.07211604 -382.1875 283.30859375 C-382.94148575 283.0050296 -383.6954715 282.70146545 -384.4723053 282.38870239 C-385.20009689 282.09462494 -385.92788849 281.80054749 -386.67773438 281.49755859 C-387.32101685 281.23776215 -387.96429932 280.9779657 -388.6270752 280.71029663 C-413.55258407 270.37367526 -432.8803078 251.20882934 -443.1875 226.30859375 C-449.89903764 207.73027941 -451.30299366 185.2904507 -445.1875 166.30859375 C-444.92066406 165.41527344 -444.65382813 164.52195312 -444.37890625 163.6015625 C-441.58256958 155.11312718 -437.28085769 147.22705511 -433.1875 139.30859375 C-429.00525998 139.89059832 -425.37760063 140.8581989 -421.4609375 142.42578125 C-420.36096436 142.86229004 -419.26099121 143.29879883 -418.12768555 143.74853516 C-416.95117432 144.22210449 -415.77466309 144.69567383 -414.5625 145.18359375 C-413.31771495 145.67950359 -412.07267425 146.17477215 -410.82739258 146.66943359 C-408.23858483 147.69836243 -405.65089905 148.73004206 -403.06396484 149.76367188 C-397.01113747 152.17943111 -390.94228485 154.5544404 -384.875 156.93359375 C-382.56507842 157.84108029 -380.25518231 158.74863168 -377.9453125 159.65625 C-370.42616261 162.60873346 -362.90368193 165.55268643 -355.37963867 168.49267578 C-354.50283447 168.83540527 -353.62603027 169.17813477 -352.72265625 169.53125 C-351.963479 169.82781494 -351.20430176 170.12437988 -350.42211914 170.42993164 C-348.00661823 171.37971726 -345.59651661 172.34249292 -343.1875 173.30859375 C-344.86192383 178.44978242 -349.91790187 180.63401873 -354.30859375 183.24609375 C-357.94577877 185.54935595 -357.94577877 185.54935595 -359.64916992 189.32324219 C-359.70494841 193.81213088 -359.23473192 196.98434074 -356.1875 200.30859375 C-354.3108122 201.32284009 -354.3108122 201.32284009 -352.14331055 202.21923828 C-350.93280533 202.73892181 -350.93280533 202.73892181 -349.69784546 203.269104 C-345.76350236 204.89824604 -341.8058426 206.45822605 -337.83203125 207.98828125 C-336.53588142 208.49115158 -336.53588142 208.49115158 -335.21354675 209.00418091 C-331.56578602 210.41940954 -327.91610591 211.82965304 -324.26635742 213.23974609 C-306.84620943 219.9758501 -306.84620943 219.9758501 -298.88671875 223.44140625 C-292.81895455 226.08188777 -286.66313829 228.42342176 -280.45996094 230.71875 C-272.54084828 233.65219689 -264.68028227 236.74079829 -256.8125 239.80859375 C-255.93119415 240.15186707 -255.04988831 240.49514038 -254.14187622 240.84881592 C-239.65161597 246.49850803 -225.23736536 252.31578895 -210.89505005 258.33117676 C-205.33501173 260.63771977 -199.76960908 262.85888999 -194.12060547 264.93994141 C-184.61474978 268.4760247 -175.2102903 272.2599523 -165.80148888 276.04515839 C-162.61371771 277.3273594 -159.42489547 278.60691463 -156.23579407 279.88580322 C-147.17906563 283.5181516 -138.12389825 287.15437829 -129.07006836 290.79394531 C-93.8098318 305.02249027 -93.8098318 305.02249027 -58.1875 318.30859375 C-57.88803467 317.53241699 -57.58856934 316.75624023 -57.2800293 315.95654297 C-56.12682625 313.16153957 -54.6997132 310.93065525 -53 308.43359375 C-33.69799564 278.47944591 -27.1431233 239.46249807 -26.984375 204.359375 C-26.97867493 203.34425339 -26.97297485 202.32913177 -26.96710205 201.2832489 C-26.95771669 199.14286315 -26.95114404 197.00246336 -26.94726562 194.86206055 C-26.93765954 191.67404062 -26.90661439 188.48669471 -26.875 185.29882812 C-26.76848882 164.54409245 -29.13540978 144.43245664 -34.1875 124.30859375 C-34.37570312 123.53177246 -34.56390625 122.75495117 -34.7578125 121.95458984 C-39.46414226 102.55274541 -46.02356124 83.05450189 -57.1875 66.30859375 C-65.16201013 68.47761539 -72.69221516 71.44319734 -80.3125 74.62109375 C-88.82279325 78.13114689 -97.33691054 81.54105285 -105.9765625 84.71875 C-111.58830716 86.8095369 -117.13243152 89.07269715 -122.6875 91.30859375 C-130.71505721 94.53873269 -138.75604327 97.6813816 -146.87890625 100.6640625 C-150.41795934 101.98915183 -153.90942173 103.41729495 -157.40234375 104.859375 C-158.51029297 105.31376953 -159.61824219 105.76816406 -160.75976562 106.23632812 C-162.95127075 107.13811404 -165.13901114 108.04912166 -167.32226562 108.97070312 C-168.33869141 109.38771484 -169.35511719 109.80472656 -170.40234375 110.234375 C-171.30073975 110.60989502 -172.19913574 110.98541504 -173.12475586 111.37231445 C-179.70515255 113.38393831 -184.83385453 114.11527825 -191.10848999 110.95846558 C-191.77651642 110.59447662 -192.44454285 110.23048767 -193.1328125 109.85546875 C-193.85715485 109.48414825 -194.58149719 109.11282776 -195.32778931 108.73025513 C-197.66687715 107.52610561 -199.98905283 106.29260767 -202.3125 105.05859375 C-203.93003907 104.22035207 -205.54886601 103.38459108 -207.16894531 102.55126953 C-210.37656685 100.90051502 -213.57971386 99.24154746 -216.78027344 97.57714844 C-222.43837788 94.64852988 -228.17267042 91.89607364 -233.9375 89.18359375 C-240.72207957 85.97132499 -247.46820588 82.70242756 -254.16333008 79.30761719 C-258.01481741 77.36461462 -261.89462025 75.49497311 -265.80078125 73.6640625 C-267.24783447 72.98452515 -267.24783447 72.98452515 -268.72412109 72.29125977 C-270.62943731 71.39953586 -272.53725343 70.51313029 -274.44775391 69.63256836 C-275.30933105 69.22917236 -276.1709082 68.82577637 -277.05859375 68.41015625 C-277.83130615 68.05260254 -278.60401855 67.69504883 -279.40014648 67.32666016 C-281.1875 66.30859375 -281.1875 66.30859375 -282.1875 64.30859375 C-270.35054316 57.51889933 -258.07726987 52.46701175 -245.3671875 47.55078125 C-243.25242336 46.72460216 -241.13808302 45.89733758 -239.0241394 45.06906128 C-235.73132046 43.77910117 -232.43823268 42.4898749 -229.14380836 41.20401955 C-218.52646282 37.05967787 -207.93815265 32.84398345 -197.35407257 28.61554718 C-192.16814853 26.54429807 -186.98040106 24.47762426 -181.79296875 22.41015625 C-175.52341127 19.91079323 -169.25420723 17.41054949 -162.98583984 14.90820312 C-149.06261838 9.3507436 -135.13221107 3.81192763 -121.1875 -1.69140625 C-120.32734787 -2.03126053 -119.46719574 -2.37111481 -118.58097839 -2.7212677 C-113.83030469 -4.59704354 -109.07551801 -6.46155337 -104.31322861 -8.30765152 C-102.92995971 -8.84517241 -101.54787171 -9.3857461 -100.16720963 -9.92992783 C-64.8943927 -23.81293334 -30.776383 -23.796739 0 0 Z " fill="#DF4076" transform="translate(893.1875,403.69140625)"/>
<path d="M0 0 C4.38647435 2.49520627 8.42212118 5.3422419 12.48046875 8.33203125 C25.77421046 17.89912525 40.05292106 25.77496312 54.80908203 32.84570312 C56.48428798 33.64892772 58.15259561 34.46649571 59.8203125 35.28515625 C85.3332188 47.51076078 112.71768146 54.56790551 140.60546875 58.70703125 C141.48106445 58.83980469 142.35666016 58.97257813 143.25878906 59.109375 C171.92124816 63.23213679 202.20963355 61.83543372 230.60546875 56.70703125 C231.56018066 56.54106445 232.51489258 56.37509766 233.49853516 56.20410156 C257.92871105 51.81009039 282.41091851 42.69530492 304.60546875 31.70703125 C305.42418457 31.31112793 306.24290039 30.91522461 307.08642578 30.50732422 C321.2032983 23.64454333 334.06204724 15.2966492 347.01660156 6.46582031 C360.42397083 -2.64269423 370.94799549 -8.052561 387.60546875 -6.29296875 C400.22203499 -3.34210866 409.70687966 2.71570123 416.60546875 13.70703125 C422.30144801 23.35071891 424.37826166 33.74960852 421.91796875 44.79296875 C417.47495021 59.19575386 409.32906415 68.41020744 397.23046875 76.95703125 C396.44736328 77.51495361 395.66425781 78.07287598 394.85742188 78.64770508 C354.15271352 107.43116501 308.37458375 128.11697815 259.60546875 138.70703125 C258.71150391 138.90248535 257.81753906 139.09793945 256.89648438 139.29931641 C253.78167092 139.97134808 250.66331465 140.623695 247.54296875 141.26953125 C246.60477295 141.46772461 245.66657715 141.66591797 244.69995117 141.87011719 C224.88667113 145.84888556 205.40976401 147.22300152 185.23046875 147.08203125 C184.05325256 147.07771088 182.87603638 147.0733905 181.66314697 147.06893921 C101.86456062 146.72673121 6.26901406 124.67592715 -52.625 66.50390625 C-56.88703844 61.93910006 -60.06586986 57.5005608 -62.39453125 51.70703125 C-62.69230469 51.03285156 -62.99007813 50.35867188 -63.296875 49.6640625 C-67.62745079 38.70790532 -65.8383211 27.33348524 -61.39453125 16.70703125 C-55.55373996 5.33649673 -46.18021266 -0.91386051 -34.5 -5.40625 C-22.7438796 -8.76302903 -10.49492059 -5.65594523 0 0 Z " fill="#F68620" transform="translate(401.39453125,822.29296875)"/>
<path d="M0 0 C1.40778052 0.34040869 2.8167033 0.67611823 4.2265625 1.0078125 C25.63029549 6.14804262 46.17957744 14.513168 66 24 C66.86367188 24.40798828 67.72734375 24.81597656 68.6171875 25.23632812 C135.65513872 57.05506584 135.65513872 57.05506584 147.23828125 83.69140625 C150.67760778 94.11521128 150.45199184 107.42010184 145.8828125 117.453125 C139.71247895 128.81769414 130.26360224 135.56420991 118.16796875 139.61328125 C114.85216147 140.20474958 111.54417213 140.18440058 108.1875 140.1875 C107.50107422 140.19974609 106.81464844 140.21199219 106.10742188 140.22460938 C101.40204169 140.23796429 97.50034344 139.51691307 93 138 C92.37593262 137.80196777 91.75186523 137.60393555 91.10888672 137.39990234 C85.4871032 135.49164158 80.7607072 132.55031566 75.8125 129.3125 C74.12402554 128.22735464 72.4352228 127.1427199 70.74609375 126.05859375 C69.93124512 125.53249512 69.11639648 125.00639648 68.27685547 124.46435547 C63.23738817 121.22323121 58.1242462 118.10504919 53 115 C52.06220703 114.42451416 52.06220703 114.42451416 51.10546875 113.83740234 C18.27115929 93.73037254 -17.1669093 82.45126849 -55 76 C-55.74378906 75.87254395 -56.48757813 75.74508789 -57.25390625 75.61376953 C-129.54688179 63.52302089 -201.81127578 86.35089997 -261.35693359 126.88183594 C-276.46454979 137.16309629 -289.6319865 142.16422929 -308.0234375 139.57421875 C-318.11320453 136.98016193 -325.94247003 129.1817769 -332 121 C-337.73154669 110.97807587 -338.86935746 98.6199369 -336.12890625 87.44921875 C-330.1968082 70.8976927 -317.36087449 61.53390374 -303.125 52.1875 C-302.53251465 51.79570557 -301.9400293 51.40391113 -301.32958984 51.00024414 C-291.11471876 44.24932007 -280.73697329 37.88794127 -270 32 C-269.26507324 31.58878906 -268.53014648 31.17757812 -267.77294922 30.75390625 C-228.29432345 8.70974209 -184.42680452 -4.26793086 -139.66455078 -9.67529297 C-137.97427796 -9.88127271 -136.28496918 -10.09546337 -134.59716797 -10.32080078 C-90.5094995 -16.17626675 -42.73435476 -11.75422551 0 0 Z " fill="#7346A7" transform="translate(674,235)"/>
<path d="M0 0 C0.99 0 1.98 0 3 0 C0.20734878 2.79265122 -2.86754506 2.97673443 -6.625 3.625 C-7.37322021 3.75688721 -8.12144043 3.88877441 -8.89233398 4.0246582 C-16.61130224 5.27570523 -24.20538477 5.28324981 -32 5 C-30 2 -30 2 -27.5625 1.3125 C-24.88760397 0.98629317 -22.70532858 0.76489047 -20.125 1.625 C-17.87690851 2.21809516 -17.87690851 2.21809516 -15.4375 0.9375 C-14.633125 0.628125 -13.82875 0.31875 -13 0 C-12.01 0.66 -11.02 1.32 -10 2 C-9.278125 1.484375 -8.55625 0.96875 -7.8125 0.4375 C-4.51995059 -1.24535859 -3.45634592 -1.00052119 0 0 Z " fill="#F57130" transform="translate(349,803)"/>
<path d="M0 0 C1.32 0.66 2.64 1.32 4 2 C4 2.66 4 3.32 4 4 C4.598125 3.484375 5.19625 2.96875 5.8125 2.4375 C6.8953125 1.7259375 6.8953125 1.7259375 8 1 C8.99 1.33 9.98 1.66 11 2 C10.67 3.32 10.34 4.64 10 6 C3.93107371 6.25287193 -1.16200408 5.69832609 -7 4 C-7 3.34 -7 2.68 -7 2 C-6.401875 2.226875 -5.80375 2.45375 -5.1875 2.6875 C-4.465625 2.790625 -3.74375 2.89375 -3 3 C-1.22809091 1.64555699 -1.22809091 1.64555699 0 0 Z " fill="#F67F45" transform="translate(306,802)"/>
<path d="M0 0 C0.825 0.20625 1.65 0.4125 2.5 0.625 C3.49 0.625 4.48 0.625 5.5 0.625 C2.87548383 3.24951617 1.0122172 3.2082868 -2.625 3.75 C-3.72070312 3.91757812 -4.81640625 4.08515625 -5.9453125 4.2578125 C-7.20988281 4.43957031 -7.20988281 4.43957031 -8.5 4.625 C-3.57355865 -0.5360338 -3.57355865 -0.5360338 0 0 Z " fill="#F67D43" transform="translate(346.5,802.375)"/>
<path d="M0 0 C0.99 0.33 1.98 0.66 3 1 C2.67 2.32 2.34 3.64 2 5 C-0.31 4.67 -2.62 4.34 -5 4 C-4.67 3.01 -4.34 2.02 -4 1 C-4 1.66 -4 2.32 -4 3 C-3.401875 2.484375 -2.80375 1.96875 -2.1875 1.4375 C-1.465625 0.963125 -0.74375 0.48875 0 0 Z " fill="#F5712F" transform="translate(314,803)"/>
</svg>
